<?xml version="1.0" encoding="utf-8"?>
<!-- Generator: Adobe Illustrator 25.0.0, SVG Export Plug-In . SVG Version: 6.00 Build 0)  -->
<svg version="1.1" id="Layer_1" xmlns="http://www.w3.org/2000/svg" xmlns:xlink="http://www.w3.org/1999/xlink" x="0px" y="0px"
	 viewBox="0 0 1099.32 1073.53" style="enable-background:new 0 0 1099.32 1073.53;" xml:space="preserve">
<style type="text/css">
	.st0{fill-rule:evenodd;clip-rule:evenodd;fill:#FF3852;}
	.st1{fill-rule:evenodd;clip-rule:evenodd;fill:#FFFFFF;}
	.st2{fill-rule:evenodd;clip-rule:evenodd;fill:#E6E7E8;stroke:#E6E6E6;stroke-width:0.5669;stroke-miterlimit:10;}
	.st3{fill-rule:evenodd;clip-rule:evenodd;fill:#939598;stroke:#E6E6E6;stroke-width:0.5669;stroke-miterlimit:10;}
</style>
<path class="st0" d="M306.08,11.76h487.16c100.17,0,182.02,81.85,182.02,182.02v383.61c0,99.99-81.85,182.02-182.02,182.02h-54.27
	L549.66,948.55L360.53,759.41h-54.45c-99.99,0-182.02-82.02-182.02-182.02V193.78C124.06,93.61,206.09,11.76,306.08,11.76z"/>
<path class="st1" d="M549.66,632.73C671.54,536.29,796.98,435.05,800,339.86c4.8-151.59-149.81-234.51-250.34-106.22
	c-100.35-128.29-254.97-45.37-250.34,106.22C302.34,435.05,427.78,536.29,549.66,632.73z M423.16,199.3c3.02,0,5.34,2.67,5.34,5.69
	c-0.18,3.02-2.85,5.52-5.87,5.34c-8.54-0.36-17.08,1.07-25.27,4.09c-16.19,5.87-30.78,17.79-41.63,33.09
	c-10.85,15.3-17.79,34.16-18.86,53.91c-0.53,11.92,1.25,24.2,5.69,36.48c1.07,2.85-0.36,6.05-3.2,7.12
	c-3.02,1.07-6.23-0.53-7.29-3.38c-4.98-13.52-6.76-27.4-6.23-40.75c1.07-21.88,8.9-42.88,21-59.78
	c12.1-17.08,28.47-30.43,46.62-37.19C403.05,200.55,413.01,198.77,423.16,199.3z"/>
<ellipse class="st2" cx="549.66" cy="1016.34" rx="370.09" ry="16.01"/>
<ellipse class="st3" cx="549.66" cy="1016.34" rx="130.95" ry="5.69"/>
</svg>
